<?xml version="1.0" standalone="no"?>
<!DOCTYPE svg PUBLIC "-//W3C//DTD SVG 20010904//EN"
 "http://www.w3.org/TR/2001/REC-SVG-20010904/DTD/svg10.dtd">
<svg version="1.0" xmlns="http://www.w3.org/2000/svg"
 width="137.000000pt" height="113.000000pt" viewBox="0 0 137.000000 113.000000"
 preserveAspectRatio="xMidYMid meet">
<metadata>
Created by potrace 1.10, written by Peter Selinger 2001-2011
</metadata>
<g transform="translate(0.000000,113.000000) scale(0.100000,-0.100000)"
fill="#000000" stroke="none">
<path d="M286 1090 c-21 -53 -21 -91 -1 -84 9 4 15 19 15 39 0 19 4 45 10 59
5 14 6 26 1 26 -5 0 -16 -18 -25 -40z"/>
<path d="M890 1103 l10 -28 -19 25 -20 25 6 -24 c3 -13 13 -26 22 -28 19 -5
28 -63 11 -63 -24 0 -139 76 -143 95 -4 19 -4 19 -6 -1 -1 -21 -2 -21 -53 -7
-90 24 -203 7 -340 -51 -12 -6 -16 -3 -14 11 2 10 1 12 -1 6 -3 -7 -10 -13
-16 -13 -7 0 -5 -5 3 -10 10 -5 38 -3 75 6 88 21 250 28 320 15 32 -6 88 -25
123 -41 35 -17 65 -30 66 -30 9 0 3 77 -8 105 -18 41 -30 48 -16 8z m-201 -17
c-2 -2 -53 -5 -114 -8 -60 -3 -96 -2 -80 2 30 8 202 13 194 6z"/>
<path d="M631 1041 c86 -5 122 -11 143 -24 15 -10 40 -20 56 -22 40 -5 49 -12
45 -35 -2 -11 1 -22 6 -25 5 -4 7 -10 4 -15 -3 -5 0 -12 6 -16 7 -4 9 -3 6 3
-8 12 36 23 64 16 20 -6 26 -23 8 -23 -8 0 -8 -5 1 -15 7 -8 16 -13 19 -10 4
2 8 -2 8 -9 0 -14 -14 -16 -33 -4 -6 4 -24 4 -40 -1 -21 -5 -30 -14 -31 -32
-3 -24 -3 -24 7 -1 20 46 41 22 58 -65 17 -86 38 -133 60 -133 15 0 18 6 14
31 -3 20 0 35 9 40 12 8 11 11 -3 20 -11 6 -18 22 -18 39 0 19 6 30 18 33 14
4 15 5 1 6 -22 1 -33 46 -18 73 11 20 12 20 24 4 7 -9 16 -64 20 -122 7 -101
8 -104 26 -88 10 9 23 31 29 48 12 37 9 107 -4 98 -5 -3 -6 2 -3 12 5 11 3 15
-5 10 -7 -5 -9 -2 -5 8 5 15 -24 53 -34 44 -2 -3 -15 4 -29 16 -14 11 -18 16
-10 12 13 -7 13 -5 1 9 -15 18 -26 23 -16 7 10 -16 -2 -12 -44 14 -109 69
-238 106 -360 104 l-96 -1 116 -6z m369 -221 c0 -13 -7 -20 -20 -20 -19 0 -27
20 -13 33 13 14 33 6 33 -13z m10 -100 c0 -20 -21 -10 -30 16 -14 37 -12 40
10 16 11 -12 20 -26 20 -32z"/>
<path d="M330 1010 c-30 -11 -67 -21 -82 -24 -15 -2 -62 -30 -105 -61 -87 -63
-130 -126 -118 -174 11 -47 57 -101 114 -135 55 -34 215 -89 225 -79 3 3 29
-17 58 -45 29 -28 49 -54 46 -57 -3 -4 -24 -1 -46 6 -33 10 -49 9 -95 -6 -58
-18 -127 -67 -127 -90 0 -28 23 -26 53 3 40 39 112 71 156 72 l34 0 -42 -30
c-23 -17 -44 -37 -47 -45 -3 -8 6 -40 21 -72 15 -32 40 -94 56 -137 l28 -79
-26 24 c-47 41 -68 73 -65 94 3 18 2 18 -12 5 -14 -14 -36 -116 -36 -165 0
-17 2 -17 10 -5 5 8 10 36 10 62 0 26 5 50 10 53 19 12 40 -16 41 -54 0 -20 5
-45 10 -56 8 -16 9 -15 5 10 l-4 30 25 -29 c17 -20 28 -25 35 -18 7 7 4 14
-11 21 -11 6 -25 20 -31 31 -19 35 5 22 36 -20 34 -46 49 -52 30 -12 -7 15
-29 75 -49 134 -26 79 -32 109 -23 118 8 8 7 9 -6 5 -31 -12 -19 9 14 25 34
16 43 29 54 75 6 29 7 29 16 8 6 -12 30 -32 54 -45 l44 -23 47 25 c25 13 48
32 51 42 7 28 22 21 22 -10 0 -20 8 -32 29 -45 40 -23 48 -22 56 13 11 49 -1
70 -41 70 -19 0 -34 5 -34 11 0 8 11 9 31 5 45 -9 182 -69 186 -82 2 -5 -12
-18 -31 -27 -41 -19 -116 -84 -116 -100 0 -6 17 7 38 29 61 63 175 86 206 42
9 -12 16 -27 16 -34 0 -13 -156 -53 -172 -43 -14 9 -38 0 -38 -13 0 -10 -101
-120 -106 -115 -2 1 8 45 21 97 29 112 29 116 11 123 -9 4 -12 0 -9 -13 3 -10
-1 -36 -8 -57 -7 -21 -13 -47 -15 -58 -3 -33 -25 -149 -30 -167 -3 -10 -1 -18
4 -18 6 0 13 12 17 27 7 27 35 75 35 58 0 -6 -4 -27 -9 -47 -5 -21 -5 -38 -1
-38 10 0 24 76 17 87 -3 5 1 17 10 28 13 18 14 13 8 -50 -10 -92 1 -80 16 18
10 70 30 110 46 93 4 -3 9 -44 11 -91 3 -47 9 -85 14 -85 9 0 6 63 -8 180 -4
35 -3 42 7 33 7 -7 14 -52 17 -108 2 -52 9 -98 14 -102 7 -3 8 13 4 43 -3 27
-7 71 -8 99 l-3 50 65 17 c88 25 99 22 120 -32 34 -89 34 -96 -6 -140 -20 -22
-33 -40 -30 -40 4 0 21 16 38 36 28 32 33 34 39 18 4 -11 1 -26 -8 -35 -12
-15 -11 -16 12 -16 14 0 25 2 25 6 0 7 -83 265 -95 294 -10 24 10 21 36 -5
l21 -23 -6 22 c-6 19 -2 23 21 29 15 4 34 11 41 17 8 6 12 6 12 -2 0 -6 7 -11
15 -11 9 0 15 -9 15 -23 0 -70 113 -307 146 -307 9 0 -4 27 -37 75 -49 72 -98
187 -99 230 0 11 -7 30 -15 42 -12 17 -13 35 -5 99 16 122 17 125 70 179 47
47 61 77 42 89 -4 3 -36 -20 -69 -50 -34 -30 -67 -54 -74 -54 -10 0 -10 -3 -1
-12 8 -8 15 -8 27 2 9 8 15 8 15 2 0 -6 -5 -14 -10 -17 -7 -4 -7 -12 0 -25 7
-12 6 -21 -3 -28 -7 -6 -14 -25 -15 -42 -1 -17 -3 -34 -4 -38 -1 -4 2 -15 7
-25 5 -12 1 -24 -10 -37 -14 -16 -15 -20 -4 -20 10 -1 9 -4 -4 -14 -9 -7 -28
-11 -42 -8 -18 3 -25 0 -25 -12 0 -20 -9 -20 -34 -1 -10 8 -39 17 -65 21 -25
4 -59 16 -76 28 -47 33 -75 46 -117 52 -48 8 -45 28 5 32 28 2 37 -1 37 -12 0
-19 -1 -19 44 -1 22 9 41 26 46 41 17 43 10 51 -10 13 -24 -45 -43 -53 -79
-34 -31 15 -70 13 -82 -6 -4 -6 -17 -13 -30 -15 -13 -1 -46 -14 -73 -28 -27
-14 -59 -26 -70 -26 -27 1 -111 38 -103 47 4 3 -9 17 -28 30 -41 28 -46 47
-10 41 14 -3 28 -1 31 3 3 5 -4 9 -15 9 -11 0 -23 5 -27 11 -4 8 -9 7 -15 -2
-6 -10 -10 -7 -18 11 -5 14 -10 18 -11 10 -1 -29 -24 24 -26 62 -1 20 -5 47
-9 60 -6 22 -6 22 9 4 15 -19 16 -19 16 8 0 15 6 34 14 42 8 7 12 22 9 33 -10
37 36 201 57 201 3 0 6 -26 6 -57 1 -36 9 -76 22 -104 l20 -47 -41 4 -42 3 40
-8 c49 -11 59 -3 45 34 -6 16 -14 64 -17 108 -5 66 -4 79 8 75 18 -6 116 -164
124 -200 12 -52 23 -28 18 35 -6 65 -21 122 -22 83 -1 -19 -1 -19 -19 0 -30
32 -53 70 -45 77 9 9 82 7 113 -3 14 -4 22 -8 17 -9 -4 -1 -1 -11 7 -23 16
-25 50 -123 61 -178 l8 -34 14 35 c13 35 13 38 -25 105 -37 64 -38 69 -20 72
27 5 84 -51 109 -105 23 -50 30 -134 12 -140 -8 -3 -21 14 -33 41 -10 25 -21
46 -24 46 -2 0 -5 -25 -5 -56 0 -51 2 -54 15 -37 13 16 14 16 8 -12 -4 -16
-10 -37 -15 -46 -4 -9 -6 -25 -3 -36 3 -11 -1 -25 -10 -32 -14 -12 -16 -9 -16
19 0 31 -1 32 -32 27 -105 -18 -130 -19 -139 -6 -6 10 -9 11 -9 2 0 -7 -4 -13
-10 -13 -5 0 -10 28 -11 63 -1 61 -1 61 -11 22 -5 -22 -7 -51 -5 -64 5 -23 4
-23 -75 -19 -43 3 -81 2 -83 -2 -11 -18 285 -17 332 1 14 5 27 8 28 7 7 -9 13
-68 7 -65 -4 2 -23 -14 -42 -36 l-35 -41 33 20 c18 10 42 27 52 37 20 18 35
23 26 8 -3 -5 27 3 67 18 l72 27 0 65 c0 37 -5 69 -12 77 -7 7 -13 23 -13 34
0 20 -27 68 -82 147 -18 27 -48 49 -94 72 -59 29 -76 33 -148 33 -54 0 -98 -6
-133 -19 -69 -25 -147 -94 -173 -153 -12 -26 -33 -59 -47 -74 l-26 -28 34 10
c58 17 60 13 29 -52 -26 -53 -26 -53 10 -28 17 12 30 17 30 11 0 -6 6 -10 13
-8 6 1 12 -5 12 -13 0 -8 -5 -14 -11 -13 -12 2 1 -45 20 -77 5 -8 -3 -4 -17 9
-15 14 -27 32 -28 40 0 11 -2 12 -6 4 -2 -7 -11 -13 -19 -13 -7 0 -11 6 -9 13
4 8 -6 13 -30 14 -40 2 -105 30 -105 46 0 5 8 3 18 -6 19 -17 69 -20 52 -3
-11 11 -34 17 -72 17 -34 0 -61 29 -47 49 9 13 10 13 6 -1 -3 -9 1 -16 8 -16
11 0 11 5 4 19 -9 16 -13 17 -27 6 -13 -10 -14 -10 -8 0 4 7 2 20 -5 28 -9 12
-8 23 7 55 18 42 94 109 122 109 8 0 30 12 49 26 26 20 40 24 64 19 29 -7 30
-6 19 15 -10 19 -9 21 7 19 27 -3 83 12 83 22 0 13 -29 10 -90 -11z m70 -107
c-1 -37 -30 -165 -44 -190 -22 -43 -33 -41 -46 7 -6 22 -15 40 -20 40 -6 0 -5
11 2 25 6 14 15 25 19 25 4 0 10 12 14 27 8 35 76 94 75 66z m523 -219 c2 -13
0 -27 -4 -30 -10 -6 -29 37 -29 63 0 24 27 -2 33 -33z m1 -37 c12 12 6 -13 -6
-26 -11 -11 -10 -12 2 -6 12 7 13 6 3 -7 -7 -8 -10 -18 -6 -22 4 -4 0 -4 -10
0 -9 3 -14 10 -11 15 3 5 0 9 -5 9 -6 0 -11 9 -11 20 0 11 -4 20 -10 20 -5 0
-10 7 -10 16 0 13 5 12 29 -5 15 -11 31 -18 35 -14z m-59 -47 c-8 -33 -33 -70
-46 -70 -8 0 -7 5 1 15 7 8 10 25 6 40 -5 19 -3 23 9 19 18 -7 20 7 4 23 -6 6
-8 17 -4 24 13 20 37 -22 30 -51z m-434 -238 c-5 -9 -19 -26 -30 -36 -20 -18
-21 -18 -21 -1 0 22 28 55 47 55 10 0 11 -5 4 -18z"/>
<path d="M681 928 c-1 -9 -6 -18 -12 -20 -14 -5 8 -83 28 -99 10 -9 12 -6 8
17 -3 16 -10 49 -14 74 -5 25 -9 38 -10 28z"/>
<path d="M1171 836 c-8 -10 -11 -27 -7 -43 4 -16 3 -23 -2 -16 -5 8 -12 -9
-20 -46 -7 -32 -22 -70 -33 -85 -17 -22 -18 -26 -4 -26 8 0 20 11 25 25 13 34
28 32 22 -2 -11 -62 9 -10 33 82 21 83 23 102 12 113 -11 11 -16 10 -26 -2z
m-1 -116 c0 -16 -4 -30 -10 -30 -11 0 -14 43 -3 53 11 12 13 8 13 -23z"/>
<path d="M664 689 c-20 -22 -11 -38 11 -19 10 8 30 11 56 7 50 -7 39 11 -14
23 -29 6 -39 4 -53 -11z"/>
<path d="M428 689 c-26 -15 -23 -32 3 -18 12 6 37 9 55 6 38 -6 47 7 12 17
-32 8 -50 7 -70 -5z"/>
<path d="M750 650 c-8 -5 -28 -10 -45 -11 -25 0 -27 -2 -10 -8 11 -5 29 -4 40
2 11 6 22 9 25 8 2 -1 6 2 8 8 4 13 1 14 -18 1z"/>
<path d="M730 545 c-8 -9 -29 -15 -57 -15 -27 0 -42 -4 -38 -10 4 -6 10 -8 14
-6 4 3 27 6 50 8 25 1 45 8 48 15 8 21 -2 26 -17 8z"/>
<path d="M970 545 c7 -8 9 -15 4 -15 -5 0 5 -12 21 -27 17 -16 40 -41 52 -58
27 -36 31 -14 9 40 -14 32 -14 35 3 35 10 0 35 -12 56 -26 24 -16 36 -20 32
-10 -3 8 -1 17 6 19 7 3 -13 16 -43 31 -64 30 -162 38 -140 11z"/>
<path d="M580 440 l-45 -7 53 -1 c33 -1 51 2 47 8 -3 6 -7 9 -8 8 -1 0 -22 -4
-47 -8z"/>
<path d="M152 278 c-36 -53 -44 -76 -31 -84 6 -3 6 -11 1 -17 -5 -7 -17 -34
-27 -62 -10 -27 -27 -65 -37 -82 -17 -32 -17 -33 2 -33 14 0 29 19 55 70 19
38 35 79 35 90 0 22 27 26 115 14 46 -7 47 -8 41 -37 -10 -52 -19 -142 -13
-137 5 5 28 143 30 182 1 9 4 15 7 13 3 -2 12 1 20 7 12 8 12 9 -2 4 -12 -3
-36 13 -75 50 -77 73 -85 74 -121 22z m131 -50 c36 -26 37 -51 1 -38 -14 6
-49 10 -79 10 l-54 0 17 39 16 38 36 -15 c19 -8 47 -23 63 -34z"/>
<path d="M484 175 c22 -8 47 -22 56 -30 19 -17 30 -19 30 -5 0 16 -42 38 -85
44 l-40 6 39 -15z"/>
<path d="M658 173 c-21 -8 -38 -19 -38 -24 0 -13 3 -12 57 16 53 27 40 33 -19
8z"/>
<path d="M966 91 c-41 -79 -44 -91 -16 -91 11 0 20 5 20 11 0 5 -4 7 -10 4
-11 -7 10 57 35 105 9 17 15 34 12 36 -2 3 -21 -27 -41 -65z"/>
<path d="M1039 113 c-56 -63 -61 -75 -14 -33 52 46 63 60 48 60 -5 0 -20 -12
-34 -27z"/>
<path d="M155 85 c4 -11 9 -35 12 -53 3 -18 12 -32 19 -32 18 0 18 -2 -11 56
-15 27 -23 40 -20 29z"/>
</g>
</svg>
